<svg width="107" height="56" viewBox="0 0 107 56" fill="none" xmlns="http://www.w3.org/2000/svg">
<path d="M1.4 26V6.4H5.18V23.06H13.804V26H1.4ZM24.5938 26.336C23.1565 26.336 21.8405 26.0467 20.6458 25.468C19.4698 24.8893 18.5365 24.0213 17.8458 22.864C17.1738 21.7067 16.8378 20.232 16.8378 18.44V6.4H20.6178V18.468C20.6178 19.4387 20.7765 20.26 21.0938 20.932C21.4112 21.5853 21.8685 22.0707 22.4658 22.388C23.0818 22.7053 23.8098 22.864 24.6498 22.864C25.5085 22.864 26.2365 22.7053 26.8338 22.388C27.4498 22.0707 27.9165 21.5853 28.2338 20.932C28.5698 20.26 28.7378 19.4387 28.7378 18.468V6.4H32.5178V18.44C32.5178 20.232 32.1538 21.7067 31.4258 22.864C30.7165 24.0213 29.7645 24.8893 28.5698 25.468C27.3752 26.0467 26.0498 26.336 24.5938 26.336ZM22.0738 4.524C21.5885 4.524 21.1685 4.356 20.8138 4.02C20.4778 3.66533 20.3098 3.236 20.3098 2.732C20.3098 2.228 20.4778 1.808 20.8138 1.472C21.1685 1.11733 21.5885 0.939999 22.0738 0.939999C22.5965 0.939999 23.0258 1.11733 23.3618 1.472C23.7165 1.808 23.8938 2.228 23.8938 2.732C23.8938 3.236 23.7165 3.66533 23.3618 4.02C23.0258 4.356 22.5965 4.524 22.0738 4.524ZM27.2258 4.524C26.7218 4.524 26.2925 4.356 25.9378 4.02C25.6018 3.66533 25.4338 3.236 25.4338 2.732C25.4338 2.228 25.6018 1.808 25.9378 1.472C26.2925 1.11733 26.7218 0.939999 27.2258 0.939999C27.7298 0.939999 28.1498 1.11733 28.4858 1.472C28.8405 1.808 29.0178 2.228 29.0178 2.732C29.0178 3.236 28.8405 3.66533 28.4858 4.02C28.1498 4.356 27.7298 4.524 27.2258 4.524ZM37.1481 26V6.4H42.0201L47.7321 19.196H47.8161L53.4721 6.4H58.3161V26H54.5361V12.448H54.4521L49.5521 23.2H45.8841L41.0121 12.448H40.9281V26H37.1481ZM61.9406 26L68.4086 6.4H74.1206L80.5326 26H76.5286L71.2926 9.144H71.2086L65.8886 26H61.9406ZM65.1046 20.68L66.1126 17.712H76.0806L77.0606 20.68H65.1046ZM8.26 55.336C6.84133 55.336 5.572 55.0933 4.452 54.608C3.35067 54.1227 2.47333 53.4133 1.82 52.48C1.18533 51.5467 0.849333 50.4173 0.812 49.092H4.844C4.86267 49.6707 5.00267 50.1933 5.264 50.66C5.544 51.1267 5.936 51.5 6.44 51.78C6.944 52.0413 7.54133 52.172 8.232 52.172C8.82933 52.172 9.34267 52.088 9.772 51.92C10.22 51.7333 10.5653 51.4627 10.808 51.108C11.0693 50.7533 11.2 50.3147 11.2 49.792C11.2 49.232 11.06 48.7653 10.78 48.392C10.5187 48.0187 10.1453 47.7013 9.66 47.44C9.17467 47.1787 8.624 46.9453 8.008 46.74C7.392 46.516 6.75733 46.292 6.104 46.068C4.536 45.5267 3.332 44.836 2.492 43.996C1.67067 43.1373 1.26 42.008 1.26 40.608C1.26 39.4693 1.54 38.4893 2.1 37.668C2.67867 36.828 3.472 36.184 4.48 35.736C5.488 35.288 6.636 35.064 7.924 35.064C9.24933 35.064 10.4067 35.2973 11.396 35.764C12.404 36.212 13.1973 36.8653 13.776 37.724C14.3733 38.5827 14.6813 39.5907 14.7 40.748H10.64C10.64 40.2627 10.5187 39.8333 10.276 39.46C10.052 39.068 9.72533 38.76 9.296 38.536C8.88533 38.312 8.4 38.2 7.84 38.2C7.35467 38.2 6.90667 38.2747 6.496 38.424C6.104 38.5733 5.78667 38.8067 5.544 39.124C5.32 39.4413 5.208 39.852 5.208 40.356C5.208 40.8227 5.32 41.2147 5.544 41.532C5.768 41.8493 6.076 42.1293 6.468 42.372C6.87867 42.596 7.364 42.82 7.924 43.044C8.484 43.2493 9.1 43.464 9.772 43.688C10.7613 44.024 11.6667 44.4253 12.488 44.892C13.3093 45.34 13.9627 45.928 14.448 46.656C14.9333 47.384 15.176 48.336 15.176 49.512C15.176 50.5387 14.9053 51.5 14.364 52.396C13.8413 53.2733 13.0667 53.9827 12.04 54.524C11.032 55.0653 9.772 55.336 8.26 55.336ZM23.812 55V38.452H18.072V35.4H33.304V38.452H27.564V55H23.812ZM44.6007 55.336C43.1634 55.336 41.8474 55.0467 40.6527 54.468C39.4767 53.8893 38.5434 53.0213 37.8527 51.864C37.1807 50.7067 36.8447 49.232 36.8447 47.44V35.4H40.6247V47.468C40.6247 48.4387 40.7834 49.26 41.1007 49.932C41.4181 50.5853 41.8754 51.0707 42.4727 51.388C43.0887 51.7053 43.8167 51.864 44.6567 51.864C45.5154 51.864 46.2434 51.7053 46.8407 51.388C47.4567 51.0707 47.9234 50.5853 48.2407 49.932C48.5767 49.26 48.7447 48.4387 48.7447 47.468V35.4H52.5247V47.44C52.5247 49.232 52.1607 50.7067 51.4327 51.864C50.7234 53.0213 49.7714 53.8893 48.5767 54.468C47.3821 55.0467 46.0567 55.336 44.6007 55.336ZM57.155 55V35.4H63.987C66.2643 35.4 68.1403 35.8107 69.615 36.632C71.1083 37.4347 72.2097 38.5733 72.919 40.048C73.647 41.504 74.011 43.2213 74.011 45.2C74.011 47.1787 73.647 48.9053 72.919 50.38C72.2097 51.836 71.1083 52.9747 69.615 53.796C68.1403 54.5987 66.2643 55 63.987 55H57.155ZM60.935 51.752H63.763C65.387 51.752 66.6563 51.4907 67.571 50.968C68.5043 50.4453 69.167 49.6987 69.559 48.728C69.951 47.7387 70.147 46.5627 70.147 45.2C70.147 43.8187 69.951 42.6427 69.559 41.672C69.167 40.6827 68.5043 39.9267 67.571 39.404C66.6563 38.8813 65.387 38.62 63.763 38.62H60.935V51.752ZM78.447 55V35.4H82.227V55H78.447ZM96.5162 55.336C94.5749 55.336 92.8669 54.9067 91.3922 54.048C89.9176 53.1893 88.7602 52.004 87.9202 50.492C87.0802 48.9613 86.6602 47.1973 86.6602 45.2C86.6602 43.2027 87.0802 41.448 87.9202 39.936C88.7602 38.4053 89.9176 37.2107 91.3922 36.352C92.8669 35.4933 94.5749 35.064 96.5162 35.064C98.4576 35.064 100.166 35.4933 101.64 36.352C103.134 37.2107 104.291 38.4053 105.112 39.936C105.934 41.448 106.344 43.2027 106.344 45.2C106.344 47.1973 105.934 48.9613 105.112 50.492C104.291 52.004 103.134 53.1893 101.64 54.048C100.166 54.9067 98.4576 55.336 96.5162 55.336ZM96.5162 51.948C97.7296 51.948 98.7842 51.6773 99.6802 51.136C100.576 50.576 101.267 49.792 101.752 48.784C102.256 47.776 102.508 46.5813 102.508 45.2C102.508 43.8 102.256 42.6053 101.752 41.616C101.267 40.608 100.576 39.8333 99.6802 39.292C98.7842 38.7507 97.7296 38.48 96.5162 38.48C95.3029 38.48 94.2482 38.7507 93.3522 39.292C92.4562 39.8333 91.7562 40.608 91.2522 41.616C90.7669 42.6053 90.5242 43.8 90.5242 45.2C90.5242 46.5813 90.7669 47.776 91.2522 48.784C91.7562 49.792 92.4562 50.576 93.3522 51.136C94.2482 51.6773 95.3029 51.948 96.5162 51.948Z" fill="black"/>
</svg>
